<svg width="25" height="25" viewBox="0 0 25 25" xmlns="http://www.w3.org/2000/svg">
  <path
    d="M12.062 7.14307C9.06786 7.14307 6.58703 9.58112 6.58703 12.618C6.58703 15.6549 9.02508 18.0929 12.062 18.0929C15.0988 18.0929 17.5369 15.6121 17.5369 12.618C17.5369 9.62389 15.0561 7.14307 12.062 7.14307ZM12.062 16.1254C10.1372 16.1254 8.55458 14.5428 8.55458 12.618C8.55458 10.6932 10.1372 9.11062 12.062 9.11062C13.9867 9.11062 15.5693 10.6932 15.5693 12.618C15.5693 14.5428 13.9867 16.1254 12.062 16.1254Z" />
  <path
    d="M17.7508 8.25518C18.4358 8.25518 18.9912 7.69983 18.9912 7.01477C18.9912 6.32971 18.4358 5.77435 17.7508 5.77435C17.0657 5.77435 16.5103 6.32971 16.5103 7.01477C16.5103 7.69983 17.0657 8.25518 17.7508 8.25518Z" />
  <path
    d="M20.9587 3.80679C19.8466 2.65192 18.264 2.0531 16.4676 2.0531H7.65635C3.93511 2.0531 1.45428 4.53393 1.45428 8.25517V17.0236C1.45428 18.8629 2.0531 20.4455 3.25074 21.6003C4.40561 22.7124 5.94543 23.2685 7.69912 23.2685H16.4248C18.264 23.2685 19.8039 22.6696 20.916 21.6003C22.0708 20.4882 22.6696 18.9056 22.6696 17.0664V8.25517C22.6696 6.45871 22.0708 4.91889 20.9587 3.80679ZM20.7021 17.0664C20.7021 18.3924 20.3171 19.4617 19.5472 20.1888C18.7773 20.916 17.708 21.3009 16.4248 21.3009H7.69912C6.41594 21.3009 5.34661 20.916 4.5767 20.1888C3.80679 19.4189 3.42183 18.3496 3.42183 17.0236V8.25517C3.42183 6.97199 3.80679 5.90266 4.5767 5.13275C5.30384 4.40561 6.41594 4.02065 7.69912 4.02065H16.5103C17.7935 4.02065 18.8629 4.40561 19.6328 5.17552C20.3599 5.94544 20.7876 7.01476 20.7876 8.25517V17.0664H20.7021Z" />
</svg>
