<svg width="25" height="25" viewBox="0 0 25 25" xmlns="http://www.w3.org/2000/svg">
  <path
    d="M18.2671 18.113H14.2807C11.4444 18.113 10.9923 16.8581 10.9923 15.6946C10.9923 15.1424 11.0265 14.2318 11.0607 13.1167H17.7213C18.7179 13.1167 20.62 12.7082 20.62 10.8848C20.62 9.0627 19.7419 7.86805 18.5657 7.86805H11.1437C11.136 5.23837 10.9649 2.61853 8.3964 2.61853C7.33435 2.61853 6.47248 3.05481 6.10891 4.13825C5.63199 5.56173 5.75817 7.2286 5.76416 8.71068C5.76587 8.99212 5.76715 9.27528 5.76801 9.55758C5.77143 10.5285 5.7911 11.505 5.79538 12.4807C5.79795 13.5308 5.79923 14.5808 5.79923 15.6301C5.79923 21.5096 11.1433 23.1756 12.1681 23.1756C13.193 23.1756 17.2081 23.271 17.9335 23.271C18.6589 23.271 20.7402 23.079 20.7402 20.9737C20.7402 18.8684 19.2637 18.113 18.2671 18.113Z" />
</svg>
