<svg width="25" height="25" viewBox="0 0 25 25" xmlns=" http://www.w3.org/2000/svg">
  <path
    d="M19.0343 12.0662H5.71948C3.60307 12.0662 1.88745 13.7836 1.88745 15.8995V18.9796C1.88745 21.0956 3.60307 22.8125 5.71948 22.8125H19.0343C21.1502 22.8125 22.8663 21.0956 22.8663 18.9796V15.8995C22.8663 13.7836 21.1502 12.0662 19.0343 12.0662ZM8.51683 14.4641H7.27898V20.6148H6.08305V14.4641H4.84605V13.4178H8.51683V14.4641ZM12.0135 20.6148H10.9527V20.0331C10.7556 20.2483 10.5524 20.4125 10.3402 20.5233C10.1281 20.6388 9.9232 20.6927 9.72388 20.6927C9.47751 20.6927 9.29444 20.6144 9.16911 20.4553C9.04593 20.2966 8.98305 20.0613 8.98305 19.7435V15.305H10.0438V19.3783C10.0438 19.504 10.0673 19.5943 10.1097 19.6503C10.1555 19.708 10.2282 19.7346 10.3278 19.7346C10.4048 19.7346 10.5041 19.6978 10.6234 19.6233C10.7436 19.5481 10.8531 19.454 10.9527 19.3376V15.3046H12.0135V20.6148ZM15.8648 19.5185C15.8648 19.8937 15.7814 20.182 15.615 20.383C15.4495 20.584 15.2074 20.6828 14.8938 20.6828C14.6851 20.6828 14.4995 20.6452 14.3382 20.5673C14.1761 20.4903 14.0234 20.3719 13.8844 20.2076V20.6144H12.8108V13.4178H13.8844V15.7357C14.0281 15.5753 14.18 15.4508 14.3386 15.3674C14.5008 15.2823 14.6637 15.2413 14.8288 15.2413C15.1646 15.2413 15.4204 15.3533 15.5975 15.5796C15.7754 15.8059 15.8639 16.1373 15.8639 16.5719V19.5185H15.8648ZM19.5445 18.0878H17.5145V19.0883C17.5145 19.3671 17.5488 19.5613 17.618 19.6695C17.6891 19.7782 17.8084 19.8312 17.9782 19.8312C18.1544 19.8312 18.2763 19.7855 18.3473 19.6939C18.4158 19.6015 18.4525 19.4005 18.4525 19.0883V18.8466H19.5445V19.1191C19.5445 19.6631 19.4124 20.0733 19.1442 20.3501C18.8803 20.6242 18.4825 20.7602 17.9538 20.7602C17.4778 20.7602 17.1026 20.6152 16.8302 20.3235C16.5586 20.0335 16.42 19.631 16.42 19.1195V16.7345C16.42 16.2755 16.5714 15.8978 16.8721 15.6082C17.1719 15.3187 17.5582 15.1741 18.0334 15.1741C18.5197 15.1741 18.8931 15.308 19.1536 15.5766C19.4141 15.8456 19.5445 16.2306 19.5445 16.734V18.0878Z" />
  <path
    d="M17.9885 16.1022C17.8191 16.1022 17.6985 16.1497 17.6249 16.2489C17.5496 16.3422 17.5145 16.5017 17.5145 16.7246V17.2614H18.4525V16.7246C18.4525 16.5017 18.4149 16.3418 18.3405 16.2489C18.2691 16.1501 18.1497 16.1022 17.9885 16.1022Z" />
  <path
    d="M14.3284 16.0843C14.2531 16.0843 14.177 16.101 14.1038 16.1356C14.0294 16.1694 13.9567 16.2254 13.8848 16.2982V19.6058C13.9699 19.6913 14.0542 19.7572 14.1363 19.7948C14.218 19.8312 14.3027 19.8517 14.393 19.8517C14.5234 19.8517 14.6184 19.8141 14.6795 19.738C14.7399 19.6627 14.7707 19.5425 14.7707 19.3727V16.6305C14.7707 16.45 14.7347 16.3148 14.6594 16.222C14.5816 16.1305 14.4712 16.0843 14.3284 16.0843Z" />
  <path
    d="M7.4629 10.2218H8.80768V6.93261L10.3736 2.2926H9.00658L8.17422 5.46208H8.08952L7.21567 2.2926H5.86106L7.4629 7.0806V10.2218Z" />
  <path
    d="M12.1957 10.3694C12.7389 10.3694 13.165 10.227 13.4755 9.94213C13.7839 9.65598 13.9383 9.26546 13.9383 8.76502V5.74354C13.9383 5.29827 13.7805 4.93171 13.4661 4.64898C13.1496 4.3671 12.7441 4.2251 12.2496 4.2251C11.7064 4.2251 11.274 4.3594 10.9523 4.62759C10.6315 4.89578 10.4703 5.2555 10.4703 5.71017V8.74192C10.4703 9.23937 10.6272 9.63288 10.9408 9.92801C11.2543 10.2219 11.6735 10.3694 12.1957 10.3694ZM11.7004 5.66569C11.7004 5.53865 11.7462 5.436 11.8356 5.35559C11.9284 5.27688 12.046 5.23882 12.1923 5.23882C12.3501 5.23882 12.478 5.27688 12.5755 5.35559C12.6726 5.436 12.721 5.53865 12.721 5.66569V8.8527C12.721 9.00882 12.6735 9.13286 12.5773 9.22226C12.4819 9.31208 12.3536 9.35614 12.1923 9.35614C12.0345 9.35614 11.9126 9.31336 11.827 9.22354C11.7428 9.13586 11.7 9.01267 11.7 8.85227V5.66569H11.7004Z" />
  <path
    d="M15.742 10.3074C15.9666 10.3074 16.1971 10.2432 16.4345 10.12C16.6745 9.99512 16.9042 9.81248 17.1227 9.57423V10.2222H18.3174V4.37305H17.1227V8.81288C17.0115 8.93991 16.8879 9.04428 16.7553 9.12726C16.6202 9.20938 16.5089 9.25044 16.4213 9.25044C16.3092 9.25044 16.2266 9.21965 16.1783 9.15592C16.1291 9.09475 16.1013 8.99466 16.1013 8.85736V4.37305H14.9084V9.26156C14.9084 9.61016 14.9785 9.87065 15.1171 10.0435C15.2583 10.2188 15.4644 10.3074 15.742 10.3074Z" />
</svg>
